<?xml version="1.0" standalone="no"?>
<!DOCTYPE svg PUBLIC "-//W3C//DTD SVG 20010904//EN"
 "http://www.w3.org/TR/2001/REC-SVG-20010904/DTD/svg10.dtd">
<svg version="1.0" xmlns="http://www.w3.org/2000/svg"
 width="16.000000pt" height="16.000000pt" viewBox="0 0 16.000000 16.000000"
 preserveAspectRatio="xMidYMid meet">
<metadata>
Created by potrace 1.11, written by Peter Selinger 2001-2013
</metadata>
<g transform="translate(0.000000,16.000000) scale(0.005128,-0.005128)"
fill="#000000" stroke="none">
<path d="M0 1560 l0 -1560 1560 0 1560 0 0 1560 0 1560 -1560 0 -1560 0 0
-1560z m1137 1412 c-10 -10 -17 -26 -17 -35 0 -9 35 -162 79 -339 89 -366 107
-448 197 -888 89 -435 150 -800 198 -1182 16 -121 31 -207 40 -220 9 -13 31
-36 51 -51 19 -15 35 -31 35 -35 0 -4 -99 -8 -219 -9 l-219 -1 -7 31 c-4 18
-7 36 -6 41 5 23 -14 46 -46 57 -51 16 -124 60 -137 82 -9 15 -7 22 13 38 22
18 23 24 19 102 -4 59 -1 91 10 117 26 60 62 256 62 338 l0 52 -189 0 c-139 0
-192 -3 -197 -12 -10 -15 -11 -558 -2 -723 4 -66 3 -106 -2 -90 -4 17 -8 66
-10 110 -1 55 -4 74 -10 60 -8 -18 -9 -18 -10 5 -2 20 -3 21 -7 5 -2 -11 -6
-30 -9 -42 -5 -25 -28 -31 -40 -11 -5 7 -7 26 -6 43 1 16 -1 25 -5 18 -5 -6
-20 -10 -36 -10 -29 2 -36 24 -15 45 9 9 9 12 1 12 -7 0 -15 -9 -18 -20 -3
-11 -16 -25 -27 -31 -20 -11 -21 -9 -15 20 4 20 3 30 -3 26 -6 -4 -10 8 -10
27 0 23 -3 29 -9 19 -5 -8 -7 -20 -4 -28 3 -7 0 -13 -6 -13 -6 0 -11 10 -12
23 0 21 -1 21 -10 -3 -8 -20 -12 -22 -19 -10 -7 11 -10 6 -11 -20 0 -33 -1
-33 -11 -12 -9 17 -8 26 6 41 13 15 16 28 11 52 -5 23 -10 28 -16 18 -5 -8 -4
-15 1 -17 13 -5 13 -32 1 -32 -5 0 -11 6 -14 13 -4 9 -7 9 -18 -1 -9 -9 -10
-12 -1 -12 7 0 12 -4 12 -10 0 -18 -30 -11 -32 8 0 9 -2 22 -3 27 -2 6 -3 16
-4 23 -2 21 -21 13 -21 -9 0 -12 -5 -19 -12 -16 -7 2 -11 13 -10 23 2 10 1 16
-3 12 -9 -8 -17 -52 -16 -85 1 -30 -15 -38 -23 -10 -3 12 -1 24 4 25 13 5 13
42 0 42 -5 0 -11 -8 -12 -17 0 -10 -2 -29 -4 -43 -1 -14 -4 -58 -7 -98 -2 -40
-7 -76 -11 -79 -13 -13 -5 -25 9 -13 13 11 14 10 9 -4 -4 -10 -13 -14 -24 -11
-13 4 -17 1 -16 -12 0 -10 -4 -18 -11 -18 -21 0 -26 -14 -7 -22 14 -6 8 -9
-26 -14 -25 -4 -47 -5 -49 -2 -3 2 16 23 42 47 26 23 47 46 47 49 0 66 108
745 181 1137 92 496 124 638 286 1303 42 174 44 189 29 206 -9 9 -16 21 -16
24 0 4 84 7 187 7 180 0 186 -1 170 -18z m1247 -338 c9 -3 23 -30 32 -59 12
-44 20 -55 46 -64 19 -7 28 -16 25 -25 -3 -7 1 -33 9 -56 l15 -43 -45 -42
c-45 -41 -66 -78 -66 -116 0 -11 18 -61 39 -112 64 -149 83 -247 89 -441 3
-120 1 -181 -8 -210 -13 -41 -21 -87 -21 -116 3 -178 -1 -296 -9 -339 -5 -30
-10 -73 -10 -96 0 -23 -12 -76 -26 -116 -23 -63 -27 -88 -25 -171 2 -88 1 -97
-17 -102 -26 -9 -33 -40 -15 -66 14 -19 108 -70 131 -70 17 0 44 -39 38 -55
-3 -9 1 -26 9 -39 14 -21 13 -24 -5 -41 -18 -17 -44 -19 -220 -23 l-200 -5 -8
24 c-13 33 -36 404 -35 554 0 66 14 283 21 325 7 42 1 142 -13 216 -3 19 -13
34 -24 37 -17 4 -18 9 -9 48 5 24 14 154 18 289 11 307 36 428 101 499 16 18
29 36 29 40 0 4 -23 18 -50 31 -66 31 -124 100 -122 146 2 61 72 155 137 185
40 18 155 26 189 13z m-1973 -2127 c-1 -12 -15 -9 -19 4 -3 6 1 10 8 8 6 -3
11 -8 11 -12z m49 -26 c2 -1 -2 -7 -8 -13 -10 -10 -15 -10 -22 2 -7 11 -10 11
-10 2 0 -7 -5 -10 -11 -6 -15 9 8 23 30 19 9 -2 18 -4 21 -4z m97 -37 c8 -22
-15 -43 -27 -24 -5 8 -10 21 -10 28 0 17 30 15 37 -4z m2319 -32 c29 -30 34
-42 34 -83 0 -40 -5 -52 -30 -78 -38 -38 -85 -48 -133 -28 -75 32 -98 129 -42
187 55 57 117 58 171 2z m-932 17 c55 -44 72 -116 36 -161 -33 -42 -78 -58
-130 -47 -56 13 -77 32 -90 80 -29 106 99 194 184 128z m-1434 -19 c0 -5 -5
-10 -11 -10 -5 0 -7 5 -4 10 3 6 8 10 11 10 2 0 4 -4 4 -10z m50 -26 c0 -8 -4
-12 -10 -9 -5 3 -10 10 -10 16 0 5 5 9 10 9 6 0 10 -7 10 -16z m120 -25 c0 -6
-4 -7 -10 -4 -5 3 -10 11 -10 16 0 6 5 7 10 4 6 -3 10 -11 10 -16z m97 -31
c-3 -7 -5 -2 -5 12 0 14 2 19 5 13 2 -7 2 -19 0 -25z m-17 -98 c0 -6 -54 -9
-147 -8 l-148 2 145 6 c80 3 146 7 148 8 1 1 2 -2 2 -8z m25 0 c3 -5 1 -10 -4
-10 -6 0 -11 5 -11 10 0 6 2 10 4 10 3 0 8 -4 11 -10z m-382 -7 c-7 -2 -19 -2
-25 0 -7 3 -2 5 12 5 14 0 19 -2 13 -5z"/>
<path d="M900 2587 c-69 -22 -160 -141 -160 -209 0 -45 61 -115 122 -141 26
-11 48 -23 48 -28 0 -5 -13 -23 -30 -42 -60 -69 -89 -209 -96 -462 -2 -104 -6
-215 -8 -245 l-4 -55 217 3 c190 2 218 5 230 20 10 13 12 52 7 182 -6 194 -32
317 -97 461 -52 116 -49 143 22 211 44 42 49 50 44 80 -13 86 -17 94 -45 105
-20 7 -31 20 -35 39 -11 53 -24 74 -51 84 -33 13 -119 11 -164 -3z"/>
<path d="M392 780 c0 -14 2 -19 5 -12 2 6 2 18 0 25 -3 6 -5 1 -5 -13z"/>
<path d="M367 613 c-9 -51 -2 -53 11 -3 5 22 6 40 2 40 -4 0 -10 -17 -13 -37z"/>
<path d="M396 631 c-4 -7 -5 -15 -2 -18 9 -9 19 4 14 18 -4 11 -6 11 -12 0z"/>
<path d="M487 627 c-11 -29 -9 -43 4 -30 6 6 9 19 7 29 -3 18 -4 18 -11 1z"/>
<path d="M585 580 c3 -5 8 -10 11 -10 2 0 4 5 4 10 0 6 -5 10 -11 10 -5 0 -7
-4 -4 -10z"/>
<path d="M1180 380 c0 -5 5 -10 11 -10 5 0 7 5 4 10 -3 6 -8 10 -11 10 -2 0
-4 -4 -4 -10z"/>
<path d="M1275 330 c3 -5 8 -10 11 -10 2 0 4 5 4 10 0 6 -5 10 -11 10 -5 0 -7
-4 -4 -10z"/>
<path d="M1286 283 c-6 -14 -5 -15 5 -6 7 7 10 15 7 18 -3 3 -9 -2 -12 -12z"/>
<path d="M2201 363 c0 -4 4 -17 9 -28 8 -19 9 -19 9 2 1 12 -3 25 -9 28 -5 3
-10 3 -9 -2z"/>
<path d="M2190 308 c0 -10 5 -18 10 -18 6 0 10 -8 8 -17 -2 -11 3 -18 12 -18
8 0 14 6 13 13 -2 7 7 12 22 12 18 0 25 -5 25 -20 0 -11 5 -20 10 -20 6 0 10
13 10 28 0 27 -2 29 -47 31 -26 1 -51 7 -55 14 -5 8 -8 7 -8 -5z"/>
<path d="M2368 303 c7 -3 16 -2 19 1 4 3 -2 6 -13 5 -11 0 -14 -3 -6 -6z"/>
<path d="M2438 303 c7 -3 16 -2 19 1 4 3 -2 6 -13 5 -11 0 -14 -3 -6 -6z"/>
<path d="M2322 271 c1 -16 6 -27 10 -25 11 7 10 42 -2 49 -6 4 -10 -5 -8 -24z"/>
<path d="M2368 283 c7 -3 16 -2 19 1 4 3 -2 6 -13 5 -11 0 -14 -3 -6 -6z"/>
<path d="M2470 275 c0 -10 -16 -15 -62 -18 -58 -3 -56 -3 17 -4 44 -1 75 1 68
3 -7 3 -9 12 -6 20 3 8 0 14 -6 14 -6 0 -11 -7 -11 -15z"/>
<path d="M2834 411 c4 -6 1 -11 -6 -11 -10 0 -10 -2 1 -9 7 -5 10 -14 7 -20
-4 -6 -2 -11 3 -11 6 0 11 9 11 20 0 11 0 23 1 27 0 4 -5 9 -12 12 -7 2 -9 -1
-5 -8z"/>
<path d="M2766 385 c-3 -8 -1 -15 4 -15 6 0 10 7 10 15 0 8 -2 15 -4 15 -2 0
-6 -7 -10 -15z"/>
<path d="M2870 375 c0 -8 4 -15 10 -15 5 0 7 7 4 15 -4 8 -8 15 -10 15 -2 0
-4 -7 -4 -15z"/>
<path d="M2720 355 c-7 -9 -11 -17 -9 -20 3 -2 10 5 17 15 14 24 10 26 -8 5z"/>
<path d="M2690 339 c0 -13 5 -31 10 -39 7 -11 8 -5 4 20 -8 43 -14 51 -14 19z"/>
<path d="M2729 329 c-8 -17 -8 -20 1 -14 9 5 10 1 5 -16 -4 -13 -4 -21 0 -17
8 7 15 68 9 68 -2 0 -8 -10 -15 -21z"/>
<path d="M2764 339 c-3 -6 -2 -15 3 -20 5 -5 9 -1 10 11 2 22 -2 25 -13 9z"/>
<path d="M1774 328 c0 -14 5 -24 9 -21 4 3 14 -1 22 -7 9 -7 15 -8 15 -2 0 5
-7 13 -16 16 -8 3 -12 11 -8 17 4 7 3 9 -4 5 -5 -3 -12 0 -15 6 -2 7 -4 1 -3
-14z"/>
<path d="M1800 265 c13 -14 28 -25 34 -25 6 0 4 5 -4 11 -11 8 -12 12 -2 16 6
2 12 9 12 15 0 7 -5 6 -14 -1 -10 -8 -16 -9 -21 -1 -3 5 -11 10 -17 10 -6 0
-1 -11 12 -25z"/>
<path d="M1900 243 c-13 -15 -12 -16 4 -10 10 4 20 7 22 7 2 0 4 5 4 10 0 15
-13 12 -30 -7z"/>
</g>
</svg>
